<svg xmlns="http://www.w3.org/2000/svg" width="178" height="21" viewBox="0 0 178 21" role="img" aria-label="Connecteam">
  <path fill="#050A14" d="M23.91 3.9c-2.15 0-4.23.95-5.71 2.59l-7.65 8.01a3.86 3.86 0 0 1-2.7 1.28 3.66 3.66 0 0 1-3.57-3.73c0-2.06 1.6-3.73 3.58-3.73.97 0 1.9.42 2.56 1.14l3.06-3.13a7.74 7.74 0 0 0-5.62-2.48C3.53 3.85 0 7.53 0 12.05s3.53 8.2 7.86 8.2c1.99 0 3.87-.81 5.47-2.36v.01l.26-.27.14-.14 7.52-7.88.09-.09a3.55 3.55 0 0 1 2.57-1.14 3.66 3.66 0 0 1 3.58 3.73c0 2.05-1.6 3.72-3.58 3.72a3.57 3.57 0 0 1-3.3-2.3l-3.13 3.28a7.78 7.78 0 0 0 6.43 3.5c4.34 0 7.86-3.68 7.86-8.2s-3.52-8.2-7.86-8.2ZM48.4 5.67a6.34 6.34 0 0 1 1.53 4.45v10.03h-4.38v-8.7c0-1-.27-1.8-.81-2.39a2.86 2.86 0 0 0-2.21-.87 3.22 3.22 0 0 0-2.56 1.17 4.46 4.46 0 0 0-.94 2.93v7.86h-4.38V4.18h4.38v2.8c1.06-1.95 2.83-2.94 5.3-2.98 1.7 0 3.06.56 4.08 1.67Zm19.07 0A6.34 6.34 0 0 1 69 10.12v10.03h-4.4v-8.7c0-1-.27-1.8-.8-2.39a2.86 2.86 0 0 0-2.21-.87 3.22 3.22 0 0 0-2.56 1.17 4.45 4.45 0 0 0-.94 2.93v7.86H53.7V4.18h4.39v2.8c1.06-1.95 2.82-2.94 5.3-2.98 1.7 0 3.06.56 4.07 1.67Zm15.3 5.19a3.7 3.7 0 0 0-.97-2.52 3.2 3.2 0 0 0-2.42-.95c-.94 0-1.74.3-2.37.93a4.41 4.41 0 0 0-1.21 2.54h6.97Zm2.2-4.6c1.29 1.48 1.93 3.55 1.93 6.2 0 .48-.01.84-.03 1.1H75.88a3.92 3.92 0 0 0 3.96 3.2 5.18 5.18 0 0 0 3.87-1.68l2.3 2.43a7.76 7.76 0 0 1-2.83 2.1 9.18 9.18 0 0 1-3.71.72 8.52 8.52 0 0 1-4.23-1 6.93 6.93 0 0 1-2.79-2.86 8.88 8.88 0 0 1-.98-4.24 8.9 8.9 0 0 1 1-4.3 7.13 7.13 0 0 1 2.79-2.87 8.11 8.11 0 0 1 4.1-1.03c2.46 0 4.34.74 5.62 2.23Zm11.4 14.24c-4.37 0-7.93-3.71-7.93-8.27 0-4.57 3.56-8.28 7.93-8.28a7.85 7.85 0 0 1 6.55 3.6l.04.07-3.24 2.08-.04-.06c-.79-1.1-2-1.73-3.3-1.73a4.23 4.23 0 0 0-4.14 4.32 4.23 4.23 0 0 0 4.13 4.3 4.1 4.1 0 0 0 3.42-1.87l.04-.06 3.28 1.99-.04.07a7.83 7.83 0 0 1-6.7 3.84Zm18.9-1.24a7.96 7.96 0 0 1-3.98 1.1 4.82 4.82 0 0 1-3.48-1.28c-.89-.85-1.33-2.06-1.33-3.65V8.04h-2.14V4.89h2.14V2.44L110.83.5v4.4H115v3.17h-4.16v6.59c0 1.23.47 1.84 1.4 1.84.64 0 1.35-.2 2.13-.6l.91 3.36Zm12.53-8.4a3.7 3.7 0 0 0-.98-2.52 3.2 3.2 0 0 0-2.41-.95c-.95 0-1.75.3-2.38.93a4.41 4.41 0 0 0-1.21 2.54h6.97Zm2.2-4.6c1.28 1.48 1.92 3.55 1.92 6.2 0 .48-.01.84-.03 1.1h-10.98a3.92 3.92 0 0 0 3.95 3.2 5.19 5.19 0 0 0 3.87-1.68l2.3 2.43a7.76 7.76 0 0 1-2.83 2.1 9.17 9.17 0 0 1-3.71.72 8.53 8.53 0 0 1-4.23-1 6.93 6.93 0 0 1-2.79-2.86 8.89 8.89 0 0 1-.98-4.24 9 9 0 0 1 1-4.3 7.12 7.12 0 0 1 2.79-2.87 8.11 8.11 0 0 1 4.1-1.03c2.46 0 4.34.74 5.62 2.23Zm12.45 10.15a2.66 2.66 0 0 0 1.2-1.72v-1.43h-3.45c-.85 0-1.48.15-1.9.44-.4.28-.6.74-.6 1.38 0 .6.2 1.1.64 1.47a2.6 2.6 0 0 0 1.75.54c.9 0 1.7-.22 2.36-.68Zm1.22 3.74v-1.87a4.94 4.94 0 0 1-2 1.55 7 7 0 0 1-2.8.53 5.3 5.3 0 0 1-3.85-1.38 4.8 4.8 0 0 1-1.42-3.6c0-1.51.5-2.68 1.52-3.53 1.01-.84 2.45-1.27 4.31-1.29h4.21v-.3c0-.84-.27-1.5-.8-1.97a3.61 3.61 0 0 0-2.38-.7c-1.43 0-2.95.47-4.56 1.4l-1.36-3.15c1.21-.63 2.35-1.1 3.41-1.4 1.06-.29 2.23-.44 3.5-.44 2.05 0 3.64.5 4.77 1.52 1.13 1 1.7 2.41 1.72 4.21l.03 10.42h-4.3Zm32.37-14.5c1 1.1 1.5 2.59 1.5 4.47v10.03h-4.36v-8.7a3.4 3.4 0 0 0-.8-2.4 2.8 2.8 0 0 0-2.16-.86 3.1 3.1 0 0 0-2.47 1.16 4.45 4.45 0 0 0-.91 2.9v7.9h-4.36v-8.7c0-1-.26-1.8-.78-2.39a2.74 2.74 0 0 0-2.15-.87c-1.04.02-1.87.4-2.49 1.16a4.44 4.44 0 0 0-.92 2.9v7.9h-4.39V4.18h4.39v2.76c1.06-1.92 2.79-2.9 5.18-2.94a5.4 5.4 0 0 1 3.27.97 5.17 5.17 0 0 1 1.9 2.71 5.74 5.74 0 0 1 2.15-2.73 6.2 6.2 0 0 1 3.38-.95c1.68 0 3.03.55 4.02 1.65Z"/>
</svg>
